<?xml version="1.0" standalone="no"?>

<svg version="1.0" xmlns="http://www.w3.org/2000/svg" width="1173.000000pt" height="912.000000pt" viewBox="0 0 1173.000000 912.000000" preserveAspectRatio="xMidYMid meet">

<g transform="translate(0.000000,912.000000) scale(0.100000,-0.100000)" fill="#000000" stroke="none">
<path d="M4240 7246 c-157 -43 -274 -172 -300 -331 -5 -33 -10 -264 -10 -512&#xA;l0 -453 -128 0 c-117 0 -131 -2 -147 -20 -26 -29 -25 -85 3 -113 20 -20 34&#xA;-22 147 -25 l125 -4 0 -509 0 -509 -121 0 c-66 0 -128 -4 -138 -10 -31 -16&#xA;-45 -64 -29 -96 21 -44 51 -54 176 -54 l112 0 0 -510 0 -510 -121 0 c-66 0&#xA;-128 -4 -138 -10 -30 -15 -46 -65 -32 -99 18 -42 49 -51 176 -51 l115 0 0 -67&#xA;c0 -98 9 -140 37 -167 29 -29 61 -36 104 -22 51 16 69 61 69 169 l0 87 1560 0&#xA;1560 0 1 -82 c0 -111 14 -148 62 -172 34 -16 42 -17 75 -4 54 20 72 62 72 171&#xA;l0 87 123 0 c110 0 126 2 145 20 12 11 24 31 28 44 7 28 -18 81 -41 90 -9 3&#xA;-70 6 -136 6 l-119 0 -2 510 -3 510 120 0 c130 0 157 9 175 56 11 29 -5 81&#xA;-30 94 -10 6 -73 10 -139 10 l-121 0 0 509 0 509 125 4 c113 3 127 5 147 25&#xA;30 30 30 86 0 116 -21 20 -29 22 -147 19 l-124 -3 -3 493 c-3 479 -4 495 -25&#xA;551 -12 32 -37 79 -55 105 -37 50 -136 123 -195 144 -55 18 -2886 23 -2953 4z&#xA;m2914 -212 c22 -11 54 -37 70 -58 l31 -38 3 -494 3 -494 -1561 0 -1560 0 0&#xA;483 0 483 30 48 c23 35 44 53 83 71 l52 25 1405 -3 c1399 -2 1405 -2 1444 -23z&#xA;m106 -1754 l0 -510 -1560 0 -1560 0 0 510 0 510 1560 0 1560 0 0 -510z m0&#xA;-1180 l0 -510 -1560 0 -1560 0 0 510 0 510 1560 0 1560 0 0 -510z"></path>
<path d="M5670 6950 c-196 -31 -336 -157 -385 -347 -50 -190 33 -409 193 -512&#xA;140 -90 342 -102 489 -30 123 60 162 125 111 183 -34 38 -67 42 -111 12 l-37&#xA;-25 0 63 c0 62 1 65 35 84 20 12 37 32 41 47 7 28 -1 118 -11 135 -3 6 -39 10&#xA;-79 10 l-73 0 -13 -61 c-11 -52 -11 -65 3 -93 9 -19 28 -38 46 -46 l32 -13 -3&#xA;-71 c-3 -66 -5 -72 -31 -84 -15 -7 -43 -16 -62 -19 l-34 -5 -3 175 c-3 175 -3&#xA;176 -30 204 -24 25 -27 37 -30 108 l-3 80 -30 0 -30 0 -3 -79 c-2 -65 -7 -84&#xA;-27 -111 -24 -31 -25 -38 -25 -183 0 -84 -4 -152 -8 -152 -18 0 -93 89 -113&#xA;134 -89 204 34 420 247 434 84 5 139 -10 209 -58 70 -48 130 -41 155 20 19 46&#xA;-2 85 -71 130 -93 60 -233 88 -349 70z m80 -595 l0 -86 -62 3 -63 3 -3 69 c-2&#xA;38 -1 74 1 80 3 6 32 12 66 14 l61 3 0 -86z"></path>
<path d="M5363 5721 c-12 -6 -26 -19 -32 -30 -7 -13 -11 -153 -11 -409 0 -369&#xA;1 -391 19 -413 19 -24 21 -24 218 -24 177 0 205 2 269 22 181 57 289 197 301&#xA;389 15 218 -105 392 -311 451 -60 18 -418 28 -453 14z m428 -178 c55 -25 108&#xA;-76 135 -129 14 -30 19 -60 19 -129 0 -101 -17 -145 -77 -205 -58 -59 -107&#xA;-74 -250 -78 l-128 -4 0 287 0 287 128 -4 c102 -3 136 -8 173 -25z"></path>
<path d="M5623 4545 c-163 -44 -287 -177 -322 -343 -50 -242 90 -476 323 -538&#xA;66 -18 206 -18 274 0 61 16 135 58 175 97 79 80 -24 198 -110 125 -55 -46&#xA;-115 -70 -185 -74 -125 -7 -222 47 -275 156 -24 48 -28 70 -28 137 0 67 4 89&#xA;28 137 83 169 299 210 454 88 72 -56 170 16 131 96 -18 38 -98 90 -175 114&#xA;-78 24 -211 26 -290 5z"></path>
<path d="M4241 2928 c-54 -9 -86 -30 -111 -71 -25 -41 -25 -93 0 -134 23 -39&#xA;54 -55 147 -78 40 -9 76 -22 81 -28 21 -27 21 -48 -1 -72 -32 -38 -112 -38&#xA;-168 0 -44 29 -74 27 -84 -6 -15 -47 75 -98 173 -99 103 0 169 43 179 118 12&#xA;92 -22 131 -143 163 -46 12 -92 27 -101 34 -21 16 -20 65 3 82 28 20 113 16&#xA;152 -7 43 -26 60 -25 74 5 8 19 8 28 -2 40 -35 43 -124 66 -199 53z"></path>
<path d="M2696 2916 c-48 -18 -101 -68 -129 -121 -53 -103 -11 -259 87 -320&#xA;45 -27 57 -30 136 -30 103 0 143 18 138 63 -3 30 -3 30 -128 16 -47 -5 -60 -2&#xA;-89 18 -50 33 -74 80 -74 143 0 122 98 191 212 151 31 -10 50 -12 63 -5 27 14&#xA;23 55 -8 75 -35 23 -157 29 -208 10z"></path>
<path d="M3016 2914 c-14 -13 -16 -48 -16 -229 0 -181 2 -216 16 -229 8 -9 22&#xA;-16 29 -16 34 0 45 30 45 121 l0 89 105 0 105 0 0 -88 c0 -76 3 -91 20 -107&#xA;17 -15 24 -16 45 -7 l25 12 0 223 c0 230 -3 247 -41 247 -37 0 -49 -27 -49&#xA;-116 l0 -84 -105 0 -105 0 0 81 c0 44 -5 89 -10 100 -13 23 -43 25 -64 3z"></path>
<path d="M3634 2922 c-7 -4 -52 -105 -100 -225 -93 -229 -96 -248 -45 -255 18&#xA;-3 26 6 46 52 l25 56 104 0 103 0 21 -50 c22 -53 44 -70 71 -53 26 17 17 60&#xA;-46 208 -114 264 -119 275 -145 275 -13 0 -28 -4 -34 -8z m64 -209 c17 -39 28&#xA;-74 25 -77 -4 -3 -33 -6 -65 -6 -43 0 -58 4 -58 14 0 17 59 150 64 145 2 -2&#xA;17 -36 34 -76z"></path>
<path d="M3952 2918 c-17 -17 -17 -449 0 -466 17 -17 43 -15 58 3 20 24 19&#xA;453 -1 466 -20 12 -43 11 -57 -3z"></path>
<path d="M4737 2915 c-15 -14 -17 -43 -17 -226 0 -265 -8 -253 154 -248 99 4&#xA;116 7 158 31 57 34 86 79 100 158 22 116 -22 229 -106 273 -57 29 -263 38&#xA;-289 12z m254 -91 c73 -64 76 -204 7 -271 -26 -25 -38 -28 -109 -32 l-79 -3 0&#xA;167 0 168 80 -5 c60 -4 85 -9 101 -24z"></path>
<path d="M5226 2914 c-14 -13 -16 -48 -16 -225 0 -265 -10 -249 165 -249 112&#xA;0 127 2 145 20 16 16 18 25 10 40 -10 18 -21 20 -120 20 l-110 0 0 65 0 64 91&#xA;3 c75 2 94 6 103 21 8 12 8 22 0 35 -9 14 -28 18 -103 20 l-91 3 0 59 0 59&#xA;113 3 c110 3 112 3 115 27 6 43 -19 51 -159 51 -103 0 -131 -3 -143 -16z"></path>
<path d="M5674 2916 c-94 -41 -110 -176 -26 -232 18 -12 66 -30 107 -39 59&#xA;-13 79 -22 92 -41 15 -24 15 -27 -4 -52 -37 -49 -107 -51 -175 -5 -40 27 -61&#xA;26 -77 -5 -36 -68 157 -133 262 -88 71 30 106 115 77 185 -16 40 -44 57 -137&#xA;82 -106 29 -113 33 -113 74 0 25 6 37 22 46 37 20 100 15 147 -11 32 -19 46&#xA;-22 59 -14 65 42 -25 114 -140 114 -35 -1 -77 -7 -94 -14z"></path>
<path d="M6330 2914 c-186 -80 -198 -358 -19 -448 99 -49 250 -28 257 36 5 39&#xA;-25 52 -72 33 -112 -47 -219 25 -219 149 0 122 91 190 206 153 59 -19 87 -10&#xA;87 29 0 53 -155 85 -240 48z"></path>
<path d="M6755 2913 c-89 -46 -134 -123 -135 -225 0 -109 40 -181 123 -223&#xA;195 -97 391 88 325 306 -14 50 -69 114 -119 139 -48 25 -150 26 -194 3z m171&#xA;-88 c14 -9 34 -35 45 -58 67 -150 -68 -307 -192 -224 -51 34 -71 80 -67 154 4&#xA;72 25 108 79 136 40 21 96 18 135 -8z"></path>
<path d="M7172 2918 c-9 -9 -12 -75 -12 -235 l0 -223 25 -12 c41 -18 54 2 57&#xA;90 l3 77 87 5 c96 6 127 23 154 87 31 72 -1 171 -66 205 -42 22 -228 26 -248&#xA;6z m208 -78 c27 -14 41 -64 29 -99 -13 -37 -52 -53 -115 -49 l-49 3 -3 78 -3&#xA;77 61 0 c34 0 70 -4 80 -10z"></path>
<path d="M7669 2883 c-68 -158 -159 -394 -159 -411 0 -22 28 -36 53 -26 9 3&#xA;24 28 33 55 l18 49 105 0 106 -1 25 -52 c20 -41 30 -52 49 -52 53 0 49 22 -44&#xA;241 -49 115 -95 217 -104 227 -8 9 -25 17 -38 17 -19 0 -28 -10 -44 -47z m85&#xA;-170 c14 -34 26 -67 26 -73 0 -6 -25 -10 -60 -10 -41 0 -60 4 -60 13 0 22 55&#xA;146 62 139 3 -4 18 -35 32 -69z"></path>
<path d="M8006 2908 c-13 -19 -16 -57 -16 -219 0 -109 3 -205 6 -213 10 -26&#xA;41 -38 64 -26 19 10 20 21 20 233 0 160 -3 226 -12 235 -19 19 -45 14 -62 -10z"></path>
<path d="M8198 2919 c-16 -9 -18 -31 -18 -229 0 -185 2 -221 16 -234 19 -19&#xA;38 -20 53 -3 6 8 12 74 13 166 l3 152 119 -155 c136 -180 155 -196 190 -160&#xA;24 23 24 435 0 458 -8 9 -21 16 -27 16 -33 -1 -36 -17 -39 -174 l-3 -158 -114&#xA;148 c-146 191 -153 197 -193 173z"></path>
<path d="M8743 2910 c-62 -38 -87 -108 -60 -173 19 -44 63 -73 137 -88 104&#xA;-21 136 -52 102 -99 -16 -21 -28 -25 -77 -28 -48 -3 -64 1 -97 23 -60 40 -108&#xA;12 -72 -42 38 -58 187 -84 264 -45 70 35 98 116 64 187 -18 38 -55 59 -144 81&#xA;-35 9 -73 20 -82 25 -25 14 -24 75 1 89 33 17 113 12 149 -10 43 -26 60 -25&#xA;74 5 8 19 8 28 -3 41 -43 53 -193 73 -256 34z"></path>
<path d="M4564 2251 c-17 -10 -38 -34 -47 -54 -59 -123 46 -246 175 -208 28 9&#xA;38 17 36 29 -3 14 -13 16 -59 14 -67 -4 -105 20 -115 74 -15 83 42 131 134&#xA;110 25 -6 33 -4 39 10 16 43 -103 62 -163 25z"></path>
<path d="M4801 2140 c-50 -122 -58 -167 -28 -158 6 2 18 19 26 36 14 31 17 32&#xA;76 32 60 0 62 -1 76 -32 15 -35 42 -44 47 -16 3 15 -81 229 -101 256 -25 33&#xA;-43 11 -96 -118z m103 -17 c7 -21 4 -23 -28 -23 -41 0 -43 5 -19 55 17 35 17&#xA;36 29 13 6 -13 15 -33 18 -45z"></path>
<path d="M5004 2257 c-6 -16 92 -258 109 -269 6 -3 16 -4 22 -2 18 7 118 252&#xA;111 270 -13 34 -38 6 -73 -81 -19 -49 -38 -93 -42 -98 -4 -4 -25 37 -47 90&#xA;-26 65 -45 99 -57 101 -9 2 -20 -3 -23 -11z"></path>
<path d="M5295 2257 c-3 -7 -4 -69 -3 -138 l3 -124 80 -5 c93 -7 105 -4 105&#xA;21 0 17 -8 19 -65 19 l-65 0 0 40 0 40 55 0 c48 0 55 3 55 20 0 16 -8 19 -57&#xA;22 -57 3 -58 3 -61 35 l-3 32 68 3 c60 3 68 5 68 23 0 18 -8 20 -88 23 -66 2&#xA;-89 0 -92 -11z"></path>
<path d="M5671 2141 c-50 -123 -58 -168 -28 -159 6 2 18 19 26 36 14 31 17 32&#xA;75 32 59 0 62 -2 76 -33 16 -33 43 -43 48 -17 1 8 -22 71 -51 140 -72 171 -77&#xA;171 -146 1z m109 -33 c0 -5 -16 -8 -35 -8 -39 0 -42 7 -19 52 l17 32 18 -35&#xA;c10 -19 18 -37 19 -41z"></path>
<path d="M6004 2256 c-7 -19 93 -263 111 -269 22 -9 33 8 84 128 57 134 62&#xA;158 30 153 -17 -2 -29 -24 -58 -95 -20 -50 -39 -94 -42 -98 -4 -3 -24 38 -45&#xA;92 -38 96 -66 127 -80 89z"></path>
<path d="M6300 2130 c0 -141 0 -141 23 -138 22 3 22 6 22 138 0 132 0 135 -22&#xA;138 -23 3 -23 3 -23 -138z"></path>
<path d="M6410 2131 c0 -113 3 -140 15 -144 23 -10 29 13 26 100 -1 46 1 83 6&#xA;82 4 0 38 -40 76 -90 45 -59 74 -89 87 -89 11 0 20 3 20 8 2 29 3 139 2 200&#xA;-2 64 -4 73 -19 70 -15 -3 -19 -18 -23 -96 l-5 -93 -74 95 c-105 135 -111 133&#xA;-111 -43z"></path>
<path d="M6726 2249 c-20 -16 -26 -29 -26 -59 0 -46 29 -74 87 -85 45 -8 63&#xA;-21 63 -45 0 -32 -61 -41 -109 -16 -35 18 -62 6 -45 -21 16 -27 83 -47 128&#xA;-39 49 9 76 37 76 79 0 48 -18 65 -85 85 -62 19 -78 39 -55 67 16 19 47 19 84&#xA;0 31 -16 59 -5 50 19 -15 39 -125 49 -168 15z"></path>
</g>
</svg>